PathFileType	4	(X/Y/Z)	/tmp/tmpjnq7zxqp/Me/MarkerData/jogging02_segment_0.trc
DataRate	CameraRate	NumFrames	NumMarkers	Units	OrigDataRate	OrigDataStartFrame	OrigNumFrames
100.093	100.093	9	39	m	100.093	402	1074
Frame#	Time	C7			CLAV			LANK			LASI			LBHD			LELB			LFHD			LFIN			LFRM			LHEE			LKNE			LPSI			LSHO			LTHI			LTIB			LTOE			LUPA			LWRA			LWRB			RANK			RASI			RBAK			RBHD			RELB			RFHD			RFIN			RFRM			RHEE			RKNE			RPSI			RSHO			RTHI			RTIB			RTOE			RUPA			RWRA			RWRB			STRN			T10		
		X1	Y1	Z1	X2	Y2	Z2	X3	Y3	Z3	X4	Y4	Z4	X5	Y5	Z5	X6	Y6	Z6	X7	Y7	Z7	X8	Y8	Z8	X9	Y9	Z9	X10	Y10	Z10	X11	Y11	Z11	X12	Y12	Z12	X13	Y13	Z13	X14	Y14	Z14	X15	Y15	Z15	X16	Y16	Z16	X17	Y17	Z17	X18	Y18	Z18	X19	Y19	Z19	X20	Y20	Z20	X21	Y21	Z21	X22	Y22	Z22	X23	Y23	Z23	X24	Y24	Z24	X25	Y25	Z25	X26	Y26	Z26	X27	Y27	Z27	X28	Y28	Z28	X29	Y29	Z29	X30	Y30	Z30	X31	Y31	Z31	X32	Y32	Z32	X33	Y33	Z33	X34	Y34	Z34	X35	Y35	Z35	X36	Y36	Z36	X37	Y37	Z37	X38	Y38	Z38	X39	Y39	Z39

403	4.01626	-0.109198	1.44505	0.0314979	-0.264222	1.36475	0.07694	-0.260208	0.0874435	0.160186	-0.173836	0.974819	0.203519	-0.192948	1.58823	0.141432	0.034991	1.14741	0.318633	-0.319614	1.59024	0.176688	-0.261278	1.0232	0.273555	-0.0687154	1.03554	0.284809	-0.188083	0.0582594	0.112009	-0.322249	0.475886	0.180931	-0.0373859	0.994128	0.0840945	-0.124424	1.4211	0.210414	-0.26748	0.655313	0.216625	-0.275654	0.230926	0.188549	-0.425791	0.0694049	0.0837185	-0.0545839	1.29652	0.305137	-0.166026	1.05608	0.233682	-0.156034	1.00009	0.277327	0.237105	0.26334	-0.0641796	-0.179117	0.964053	-0.107505	-0.0872741	1.31809	-0.103926	-0.245684	1.58897	0.00113297	-0.274432	1.12099	-0.228517	-0.359163	1.58486	0.0538045	-0.428386	1.14563	0.0743252	-0.316971	1.0855	-0.159693	0.286403	0.316387	0.00739963	-0.130029	0.454816	-0.102439	-0.0428724	0.996552	0.0211587	-0.22131	1.43167	-0.112319	-0.189159	0.787739	-0.130388	-0.00308359	0.405844	-0.120315	0.212821	0.0962821	-0.0226947	-0.267709	1.21156	-0.209669	-0.342386	1.13726	-0.00434583	-0.393974	1.0853	-0.00921711	-0.297867	1.20731	0.0894345	-0.0471307	1.22627	0.0159152
404	4.02625	-0.107251	1.43657	0.0340999	-0.263292	1.35473	0.0783881	-0.242099	0.0883694	0.159855	-0.170098	0.968108	0.205308	-0.193349	1.58197	0.144462	0.0258361	1.13052	0.321946	-0.320189	1.58439	0.179272	-0.27272	1.01636	0.271264	-0.0804103	1.02281	0.285373	-0.169597	0.0590516	0.112095	-0.329297	0.474256	0.182038	-0.0341056	0.983251	0.0846459	-0.124268	1.41201	0.21364	-0.268596	0.65163	0.220613	-0.271657	0.230991	0.190162	-0.407263	0.0678933	0.0834494	-0.0588772	1.28205	0.309329	-0.175942	1.04649	0.232927	-0.168482	0.990075	0.276347	0.231033	0.267713	-0.0633274	-0.178875	0.954906	-0.107731	-0.0855577	1.31	-0.101517	-0.245532	1.58307	0.00387001	-0.26698	1.11251	-0.228997	-0.359319	1.57935	0.0561621	-0.427855	1.12159	0.0715278	-0.30979	1.07398	-0.162244	0.279376	0.320879	0.00879405	-0.140409	0.446481	-0.10102	-0.0402313	0.985483	0.021166	-0.220569	1.4246	-0.111054	-0.193281	0.778925	-0.129217	-0.0129395	0.401062	-0.119721	0.209062	0.100129	-0.0238099	-0.262241	1.20202	-0.208971	-0.340079	1.11869	-0.00581205	-0.390087	1.06583	-0.0136692	-0.296602	1.19742	0.0911186	-0.0461274	1.2156	0.0183563
405	4.03624	-0.105187	1.42991	0.0367001	-0.262418	1.34487	0.079317	-0.223842	0.0890627	0.159659	-0.165905	0.961427	0.206942	-0.193951	1.57608	0.147362	0.0156157	1.11331	0.325117	-0.320962	1.57863	0.181566	-0.284714	1.00942	0.268533	-0.0928932	1.00983	0.285375	-0.150824	0.0598495	0.112385	-0.335386	0.473117	0.183476	-0.0304017	0.971927	0.0835328	-0.123714	1.40323	0.217303	-0.27014	0.649457	0.223307	-0.264327	0.231485	0.191826	-0.388755	0.0671594	0.0839927	-0.0642531	1.26704	0.313176	-0.186581	1.03668	0.231525	-0.181586	0.979811	0.274662	0.222848	0.271395	-0.0624255	-0.177709	0.945816	-0.108281	-0.0831561	1.30149	-0.0985119	-0.24555	1.57761	0.006567	-0.258816	1.10382	-0.229294	-0.359487	1.57388	0.0582425	-0.426916	1.09642	0.0674351	-0.301783	1.06251	-0.164906	0.271211	0.324682	0.00970328	-0.151951	0.43912	-0.0993548	-0.036794	0.973153	0.0200302	-0.219215	1.41788	-0.110731	-0.197597	0.771332	-0.128286	-0.0241351	0.396661	-0.118695	0.203097	0.103367	-0.024218	-0.256159	1.1925	-0.208095	-0.337443	1.09949	-0.00781204	-0.385558	1.04578	-0.019091	-0.295123	1.18717	0.0924661	-0.0451116	1.20432	0.0206625
406	4.04623	-0.104242	1.42452	0.0392555	-0.262541	1.33685	0.0796167	-0.205938	0.0891801	0.159477	-0.162016	0.955094	0.208304	-0.194578	1.5701	0.15008	0.00435559	1.0962	0.328095	-0.321711	1.5726	0.183503	-0.29727	1.00289	0.265224	-0.106306	0.997149	0.284811	-0.131745	0.0606647	0.112803	-0.33787	0.470468	0.186558	-0.0262912	0.961521	0.0798245	-0.122798	1.39415	0.221575	-0.271802	0.647835	0.225222	-0.254237	0.230929	0.193323	-0.370509	0.0657661	0.084321	-0.0708834	1.25201	0.316286	-0.198029	1.02709	0.229535	-0.195432	0.969998	0.272242	0.212956	0.274323	-0.0614146	-0.175605	0.937348	-0.108952	-0.0798449	1.29343	-0.0947979	-0.245337	1.5721	0.00902995	-0.249905	1.0954	-0.229186	-0.359488	1.56816	0.0599511	-0.425595	1.07062	0.0617017	-0.292954	1.05125	-0.167687	0.262252	0.327572	0.0103781	-0.164825	0.433425	-0.0983621	-0.0330014	0.960423	0.0163665	-0.217424	1.4113	-0.110965	-0.20134	0.766379	-0.127189	-0.0365576	0.39257	-0.117411	0.195033	0.105916	-0.0240742	-0.249444	1.18398	-0.207214	-0.334203	1.08008	-0.0104113	-0.380085	1.02543	-0.0254527	-0.293383	1.17696	0.0932318	-0.0439412	1.19315	0.0228641
407	4.05622	-0.105129	1.4197	0.041871	-0.262973	1.33044	0.0796896	-0.187251	0.0892142	0.15934	-0.158179	0.94972	0.209176	-0.195086	1.56386	0.152597	-0.00797417	1.07964	0.330838	-0.322392	1.56634	0.185115	-0.310335	0.997356	0.261174	-0.120651	0.985314	0.283896	-0.1125	0.0610089	0.112816	-0.336372	0.465556	0.19102	-0.0225056	0.95251	0.0749381	-0.122007	1.38486	0.226182	-0.271636	0.644881	0.22739	-0.242147	0.228694	0.194563	-0.351455	0.064861	0.0844901	-0.0783843	1.23766	0.319149	-0.209945	1.01861	0.227149	-0.209958	0.961162	0.269179	0.201745	0.27648	-0.060422	-0.173186	0.92999	-0.10948	-0.0757004	1.28703	-0.0908582	-0.244826	1.56633	0.0112019	-0.240373	1.08773	-0.228864	-0.359308	1.56228	0.0613078	-0.42361	1.0451	0.0541661	-0.28338	1.04026	-0.170588	0.252483	0.329425	0.0109235	-0.178293	0.429106	-0.0978338	-0.0290769	0.949192	0.0110724	-0.215929	1.40464	-0.11106	-0.203987	0.76282	-0.126108	-0.0499759	0.388552	-0.116241	0.18468	0.108063	-0.0232076	-0.242108	1.17669	-0.206729	-0.33006	1.06085	-0.0137665	-0.373413	1.00521	-0.0325848	-0.29143	1.16737	0.0933199	-0.0426038	1.18344	0.0250127
408	4.06621	-0.106973	1.41525	0.0447247	-0.262562	1.3244	0.0800301	-0.167714	0.0896818	0.15947	-0.154079	0.945557	0.210065	-0.195556	1.55758	0.154889	-0.0214213	1.06413	0.333222	-0.323067	1.56017	0.186446	-0.323802	0.993396	0.25632	-0.13581	0.97466	0.282788	-0.0928308	0.0614706	0.11281	-0.331858	0.458767	0.195449	-0.0196897	0.945046	0.0716314	-0.122124	1.37636	0.230528	-0.268753	0.639562	0.229658	-0.228595	0.225356	0.195619	-0.331944	0.0643607	0.0845946	-0.0864506	1.22442	0.321721	-0.222216	1.01155	0.224303	-0.225126	0.953799	0.265831	0.189511	0.277849	-0.0596108	-0.171425	0.92387	-0.109768	-0.0714894	1.28263	-0.0874527	-0.244122	1.56051	0.0130893	-0.230183	1.08099	-0.228737	-0.359043	1.55656	0.0623188	-0.420674	1.02099	0.044885	-0.272995	1.0297	-0.173701	0.241818	0.330208	0.0113275	-0.191953	0.425054	-0.0972979	-0.0255527	0.940484	0.00738434	-0.21513	1.39808	-0.110496	-0.205783	0.758829	-0.125514	-0.0639624	0.384715	-0.115243	0.172099	0.109497	-0.0222154	-0.234271	1.17007	-0.20662	-0.324824	1.04226	-0.0179837	-0.36544	0.985766	-0.0403643	-0.289394	1.15901	0.0927861	-0.0413636	1.17649	0.0271939
409	4.0762	-0.108024	1.41142	0.0479929	-0.261296	1.31822	0.0806842	-0.148026	0.0900152	0.159456	-0.150582	0.941864	0.210782	-0.196027	1.55166	0.156988	-0.0358084	1.05013	0.33521	-0.323812	1.55441	0.187504	-0.337541	0.991461	0.250684	-0.151669	0.965492	0.281316	-0.0728236	0.0620949	0.11294	-0.324762	0.450802	0.199075	-0.0175394	0.939465	0.0709178	-0.123587	1.36951	0.2339	-0.263489	0.632451	0.231755	-0.214174	0.221406	0.19645	-0.312322	0.0640205	0.0847166	-0.094763	1.21276	0.324054	-0.234783	1.00607	0.220953	-0.240857	0.948186	0.262045	0.17652	0.278371	-0.0590318	-0.170649	0.919022	-0.109781	-0.0683688	1.27932	-0.0848577	-0.243383	1.555	0.0147175	-0.219154	1.07523	-0.229106	-0.358765	1.55126	0.063063	-0.416599	0.999338	0.0341796	-0.26158	1.01995	-0.177183	0.230354	0.329797	0.0116306	-0.205487	0.421327	-0.0968023	-0.0228988	0.934598	0.00691234	-0.214567	1.39195	-0.109393	-0.206932	0.754471	-0.125397	-0.0781635	0.381423	-0.114311	0.157338	0.110059	-0.0212284	-0.22599	1.16386	-0.206584	-0.318484	1.02509	-0.0230552	-0.35627	0.967929	-0.0487515	-0.287383	1.1522	0.0917508	-0.0401064	1.17272	0.0295576
410	4.08619	-0.107321	1.40799	0.0511896	-0.259928	1.31259	0.0814524	-0.128615	0.0901239	0.159262	-0.148214	0.938194	0.211321	-0.19661	1.54648	0.158902	-0.050717	1.03796	0.337001	-0.324696	1.54937	0.188225	-0.351408	0.991773	0.244299	-0.168073	0.95835	0.279185	-0.0530926	0.0625031	0.112889	-0.315443	0.442608	0.201777	-0.0155969	0.93569	0.0716144	-0.125995	1.36413	0.236206	-0.255949	0.624446	0.233328	-0.199148	0.217394	0.197031	-0.292667	0.0637526	0.0848159	-0.103328	1.20289	0.3259	-0.247551	1.00242	0.216976	-0.257059	0.944326	0.25737	0.16285	0.277745	-0.058456	-0.169782	0.915541	-0.109304	-0.0663374	1.27641	-0.0829766	-0.242697	1.55015	0.0161567	-0.207081	1.07043	-0.230094	-0.358566	1.54661	0.0635542	-0.411067	0.980846	0.0227143	-0.248912	1.0116	-0.181109	0.218213	0.328016	0.0120052	-0.218914	0.418737	-0.0964322	-0.020806	0.931107	0.00803372	-0.213513	1.38663	-0.108234	-0.207633	0.750707	-0.125428	-0.0924317	0.37907	-0.113407	0.140481	0.109705	-0.0201486	-0.216943	1.15835	-0.20664	-0.311291	1.0102	-0.0288873	-0.346163	0.952666	-0.0577416	-0.285298	1.14687	0.0902974	-0.0386495	1.17125	0.0321489
411	4.09618	-0.105345	1.40435	0.0535664	-0.259147	1.30857	0.0820905	-0.109242	0.0903187	0.159215	-0.14668	0.934723	0.211791	-0.197341	1.54231	0.160658	-0.0661182	1.02772	0.338358	-0.325756	1.54523	0.188612	-0.365195	0.994371	0.237176	-0.184768	0.953498	0.276187	-0.0337501	0.0626795	0.11259	-0.305411	0.43516	0.203242	-0.0140143	0.933344	0.0728707	-0.128433	1.35996	0.238154	-0.247332	0.617078	0.234752	-0.183608	0.21407	0.197344	-0.273034	0.0635393	0.084866	-0.112162	1.19502	0.326991	-0.260323	1.00096	0.21267	-0.273286	0.942687	0.251945	0.148394	0.275809	-0.0576295	-0.168806	0.913097	-0.108775	-0.0645412	1.27395	-0.0814669	-0.242046	1.54627	0.0174409	-0.193854	1.06673	-0.231644	-0.35841	1.54264	0.063789	-0.404093	0.965809	0.0111398	-0.234998	1.00522	-0.185257	0.205498	0.324697	0.0125662	-0.232147	0.417758	-0.0961321	-0.0192647	0.928978	0.00928897	-0.21167	1.38236	-0.107366	-0.208097	0.748421	-0.125444	-0.106629	0.377905	-0.112526	0.121823	0.108699	-0.019194	-0.206839	1.15415	-0.207096	-0.303211	0.998307	-0.0353945	-0.335458	0.940757	-0.0673207	-0.283107	1.14285	0.0885058	-0.0370515	1.17074	0.0349143
